<svg xmlns="http://www.w3.org/2000/svg" xmlns:xlink="http://www.w3.org/1999/xlink" width="487" zoomAndPan="magnify" viewBox="0 0 365.25 362.999992" height="484" preserveAspectRatio="xMidYMid meet" version="1.0"><defs><clipPath id="bf38ed7847"><path d="M 64 67 L 309 67 L 309 299 L 64 299 Z M 64 67 " clip-rule="nonzero"/></clipPath><clipPath id="e2ee9d377b"><path d="M 153.246094 0.375 L 364.140625 160.761719 L 211 362.125 L 0.105469 201.738281 Z M 153.246094 0.375 " clip-rule="nonzero"/></clipPath><clipPath id="19d4766d42"><path d="M 153.246094 0.375 L 364.140625 160.761719 L 211 362.125 L 0.105469 201.738281 Z M 153.246094 0.375 " clip-rule="nonzero"/></clipPath></defs><g clip-path="url(#bf38ed7847)"><g clip-path="url(#e2ee9d377b)"><g clip-path="url(#19d4766d42)"><path fill="#fa7d22" d="M 305.332031 236.644531 C 301.796875 240.113281 294.144531 243.0625 289.398438 240.574219 C 273.257812 232.105469 257.121094 223.640625 240.96875 215.195312 C 225.035156 206.851562 209.105469 198.503906 193.175781 190.15625 C 192.074219 223.648438 187.667969 257.015625 180.125 289.753906 C 179.566406 292.203125 176.828125 294.1875 174.847656 295.515625 C 172.304688 297.238281 169.160156 298.132812 166.140625 298.375 C 164.066406 298.550781 161.082031 298.109375 159.46875 296.546875 C 157.765625 294.914062 157.984375 293.101562 158.445312 291.027344 C 159.421875 286.847656 159.949219 284.335938 160.828125 280.042969 C 161.609375 276.269531 162.324219 272.484375 162.996094 268.703125 C 164.359375 261.121094 165.550781 253.519531 166.546875 245.878906 C 168.972656 227.574219 170.394531 209.027344 170.773438 190.472656 C 141.914062 211.101562 113.050781 231.726562 84.191406 252.355469 C 80.519531 254.976562 72.59375 257.007812 68.820312 253.429688 C 64.730469 249.535156 69.886719 244.425781 73.074219 242.148438 C 87.328125 231.941406 101.605469 221.753906 115.859375 211.550781 C 132.515625 199.660156 149.144531 187.753906 165.816406 175.84375 C 133.109375 158.691406 100.402344 141.542969 67.679688 124.417969 C 62.722656 121.804688 64.511719 117.046875 67.84375 113.796875 C 71.378906 110.328125 79.03125 107.378906 83.777344 109.871094 C 99.917969 118.335938 116.054688 126.800781 132.207031 135.246094 C 144.902344 141.914062 157.585938 148.539062 170.277344 155.207031 C 169.042969 129.746094 165.894531 104.445312 160.828125 79.804688 C 159.707031 74.359375 164.507812 70.699219 169 68.667969 C 171.453125 67.546875 174.84375 66.917969 177.53125 67.359375 C 179.09375 67.613281 182.269531 68.683594 182.683594 70.640625 C 185.988281 86.660156 188.585938 102.820312 190.375 119.066406 C 191.722656 131.472656 192.632812 143.917969 193.070312 156.34375 C 218.414062 138.230469 243.742188 120.136719 269.085938 102.023438 C 272.757812 99.402344 280.683594 97.371094 284.457031 100.949219 C 288.546875 104.84375 283.390625 109.953125 280.203125 112.230469 C 265.949219 122.4375 251.671875 132.625 237.417969 142.828125 C 224.609375 151.96875 211.824219 161.125 199.011719 170.265625 C 234.503906 188.859375 269.949219 207.460938 305.4375 226.054688 C 310.394531 228.664062 308.601562 233.421875 305.273438 236.675781 Z M 305.332031 236.644531 " fill-opacity="1" fill-rule="nonzero"/></g></g></g></svg>